# xmcd
# 
# Track frame offsets:
#     150
#     12095
#     23475
#     42017
#     51992
#     69257
#     79757
#     96582
#     107987
#     126812
# 
# Disc length: 1840
# 
# Revision: 4
# Processed by: cddbd v1.5.2PL0 Copyright (c) Steve Scherf et al.
# Submitted via: BonkEnc v1.0
# 
DISCID=79072e0a
DTITLE=The Frank Cunimundo Trio featuring Lynn Marino - Feelin' Good
DYEAR=1997
DGENRE=Jazz
TTITLE0=Love So Fine
TTITLE1=Beyond The Clouds
TTITLE2=A House Is Not a Home
TTITLE3=Animal Crackers In My Soup
TTITLE4=What Are You Doing The Rest Of Your Life
TTITLE5=Feelin' Good
TTITLE6=Until It's Time
TTITLE7=Pretty Pretty
TTITLE8=Soon It's Gonna Rain
TTITLE9=We've Only Just Begun
EXTD=YEAR: 1997
EXTT0=
EXTT1=
EXTT2=
EXTT3=
EXTT4=
EXTT5=
EXTT6=
EXTT7=
EXTT8=
EXTT9=
PLAYORDER=
